<svg width="262" height="28" viewBox="0 0 262 28" fill="none" xmlns="http://www.w3.org/2000/svg">
<path d="M45.8177 6.34616H56.9766V7.35248H46.9582V12.9879H52.2581C54.0919 12.9879 55.4858 13.3606 56.4399 14.106C57.3941 14.8514 57.8711 15.9472 57.8711 17.3933C57.8711 18.8841 57.3643 20.0246 56.3505 20.8148C55.3367 21.6049 53.8682 22 51.945 22H45.8177V6.34616ZM51.9674 21.0384C53.5328 21.0384 54.718 20.7402 55.5231 20.1439C56.3281 19.5327 56.7306 18.6307 56.7306 17.438C56.7306 15.0974 55.1429 13.9271 51.9674 13.9271H46.9582V21.0384H51.9674ZM70.7304 10.3267L64.7372 23.5877C64.2899 24.6164 63.7681 25.3469 63.1718 25.7793C62.5904 26.2116 61.8971 26.4278 61.0921 26.4278C60.5554 26.4278 60.0485 26.3383 59.5714 26.1594C59.1092 25.9805 58.7142 25.7196 58.3862 25.3768L58.9452 24.527C59.5416 25.1382 60.2646 25.4438 61.1144 25.4438C61.6809 25.4438 62.1655 25.2873 62.568 24.9742C62.9705 24.6612 63.3432 24.1244 63.6861 23.3641L64.3123 21.9553L59.0571 10.3267H60.2423L64.9161 20.7701L69.5899 10.3267H70.7304ZM83.9991 21.016V24.9071H82.948V22H71.9009V24.9071H70.8275V21.016H71.5207C72.3109 20.9713 72.8476 20.3601 73.1308 19.1823C73.429 17.9896 73.6377 16.3199 73.757 14.1731L73.9135 10.3267H82.1206V21.016H83.9991ZM74.7857 14.2402C74.7111 16.0143 74.562 17.4902 74.3384 18.668C74.1148 19.8457 73.7123 20.6284 73.1308 21.016H81.0025V11.333H74.9198L74.7857 14.2402ZM91.9752 14.5756C93.4213 14.5905 94.5245 14.911 95.2849 15.5372C96.0452 16.1484 96.4254 17.0504 96.4254 18.2431C96.4254 19.4805 96.0228 20.4272 95.2178 21.0831C94.4127 21.7391 93.2424 22.0596 91.7068 22.0447L87.3014 22V10.3267H88.4195V14.5309L91.9752 14.5756ZM91.6845 21.1502C92.8622 21.1651 93.7567 20.9266 94.368 20.4346C94.9792 19.9426 95.2849 19.2121 95.2849 18.2431C95.2849 17.3038 94.9867 16.6106 94.3904 16.1634C93.794 15.7012 92.8921 15.4552 91.6845 15.4254L88.4195 15.403V21.1055L91.6845 21.1502Z" fill="#161D35"/>
<path d="M110.142 22.0895C109.009 22.0895 107.996 21.836 107.101 21.3291C106.207 20.8222 105.506 20.1215 104.999 19.227C104.492 18.3176 104.239 17.2964 104.239 16.1634C104.239 15.0154 104.492 13.9942 104.999 13.0997C105.506 12.1903 106.207 11.4896 107.101 10.9976C107.996 10.4907 109.009 10.2373 110.142 10.2373C111.082 10.2373 111.931 10.4236 112.692 10.7963C113.467 11.1541 114.093 11.6834 114.57 12.3841L113.743 12.9879C113.325 12.4064 112.804 11.9741 112.177 11.6908C111.566 11.3927 110.888 11.2436 110.142 11.2436C109.233 11.2436 108.413 11.4523 107.683 11.8697C106.967 12.2723 106.4 12.8462 105.983 13.5917C105.58 14.3371 105.379 15.1943 105.379 16.1634C105.379 17.1324 105.58 17.9896 105.983 18.7351C106.4 19.4805 106.967 20.0619 107.683 20.4793C108.413 20.8819 109.233 21.0831 110.142 21.0831C110.888 21.0831 111.566 20.9415 112.177 20.6582C112.804 20.3601 113.325 19.9203 113.743 19.3388L114.57 19.9426C114.093 20.6433 113.467 21.18 112.692 21.5527C111.931 21.9105 111.082 22.0895 110.142 22.0895Z" fill="#161D35"/>
<path d="M140.325 16.0068C140.325 17.8555 139.706 19.309 138.469 20.3675C137.246 21.426 135.494 22.0298 133.213 22.1789V26.3383H130.575V22.2013C128.294 22.0522 126.542 21.4484 125.319 20.3899C124.097 19.3314 123.486 17.8704 123.486 16.0068C123.486 14.1582 124.097 12.7195 125.319 11.6908C126.542 10.6472 128.294 10.0509 130.575 9.90182V5.40693H133.213V9.90182C135.494 10.0509 137.246 10.6472 138.469 11.6908C139.706 12.7344 140.325 14.1731 140.325 16.0068ZM126.236 16.0068C126.236 17.1548 126.587 18.0493 127.287 18.6903C128.003 19.3314 129.099 19.719 130.575 19.8532V12.2723C129.099 12.3915 128.003 12.7642 127.287 13.3904C126.587 14.0165 126.236 14.8887 126.236 16.0068ZM133.213 19.8532C136.135 19.5848 137.596 18.3027 137.596 16.0068C137.596 14.8738 137.231 14.0016 136.501 13.3904C135.785 12.7642 134.689 12.3915 133.213 12.2723V19.8532ZM143.034 10.0584H145.829V17.93L152.426 10.0584H154.976V22H152.18V14.1284L145.606 22H143.034V10.0584ZM158.736 10.0584H161.531V14.911H167.547V10.0584H170.342V22H167.547V17.2815H161.531V22H158.736V10.0584ZM178.538 9.92418C180.298 9.92418 181.639 10.3491 182.564 11.1989C183.503 12.0337 183.972 13.3009 183.972 15.0005V22H181.334V20.5464C180.991 21.0682 180.499 21.4708 179.858 21.754C179.232 22.0224 178.471 22.1565 177.577 22.1565C176.682 22.1565 175.9 22.0075 175.229 21.7093C174.558 21.3962 174.036 20.9713 173.663 20.4346C173.306 19.883 173.127 19.2643 173.127 18.5785C173.127 17.5051 173.522 16.6479 174.312 16.0068C175.117 15.3508 176.377 15.0229 178.091 15.0229H181.177V14.844C181.177 14.0091 180.924 13.368 180.417 12.9208C179.925 12.4735 179.187 12.2499 178.203 12.2499C177.532 12.2499 176.869 12.3543 176.213 12.563C175.572 12.7717 175.027 13.0624 174.58 13.4351L173.484 11.4001C174.111 10.923 174.863 10.5578 175.743 10.3043C176.623 10.0509 177.554 9.92418 178.538 9.92418ZM178.158 20.1215C178.859 20.1215 179.478 19.965 180.014 19.6519C180.566 19.3239 180.954 18.8618 181.177 18.2654V16.879H178.292C176.682 16.879 175.877 17.4082 175.877 18.4667C175.877 18.9736 176.078 19.3761 176.481 19.6743C176.884 19.9725 177.443 20.1215 178.158 20.1215ZM187.432 10.0584H190.227V14.911H196.242V10.0584H199.038V22H196.242V17.2815H190.227V22H187.432V10.0584ZM208.218 22.1565C206.981 22.1565 205.87 21.8956 204.886 21.3738C203.902 20.8521 203.134 20.129 202.583 19.2047C202.031 18.2654 201.755 17.2069 201.755 16.0292C201.755 14.8514 202.031 13.8004 202.583 12.8761C203.134 11.9517 203.895 11.2287 204.864 10.7069C205.848 10.1851 206.966 9.92418 208.218 9.92418C209.396 9.92418 210.425 10.1627 211.304 10.6398C212.199 11.1169 212.87 11.8026 213.317 12.6971L211.17 13.9495C210.827 13.3978 210.395 12.9879 209.873 12.7195C209.366 12.4363 208.807 12.2946 208.196 12.2946C207.152 12.2946 206.287 12.6375 205.602 13.3233C204.916 13.9942 204.573 14.8961 204.573 16.0292C204.573 17.1622 204.908 18.0716 205.579 18.7574C206.265 19.4283 207.137 19.7637 208.196 19.7637C208.807 19.7637 209.366 19.6296 209.873 19.3612C210.395 19.078 210.827 18.6605 211.17 18.1089L213.317 19.3612C212.855 20.2557 212.176 20.949 211.282 21.4409C210.402 21.918 209.381 22.1565 208.218 22.1565ZM220.228 9.92418C221.987 9.92418 223.329 10.3491 224.253 11.1989C225.193 12.0337 225.662 13.3009 225.662 15.0005V22H223.023V20.5464C222.681 21.0682 222.189 21.4708 221.547 21.754C220.921 22.0224 220.161 22.1565 219.266 22.1565C218.372 22.1565 217.589 22.0075 216.918 21.7093C216.248 21.3962 215.726 20.9713 215.353 20.4346C214.995 19.883 214.816 19.2643 214.816 18.5785C214.816 17.5051 215.211 16.6479 216.002 16.0068C216.807 15.3508 218.066 15.0229 219.781 15.0229H222.867V14.844C222.867 14.0091 222.613 13.368 222.107 12.9208C221.615 12.4735 220.877 12.2499 219.893 12.2499C219.222 12.2499 218.558 12.3543 217.902 12.563C217.261 12.7717 216.717 13.0624 216.27 13.4351L215.174 11.4001C215.8 10.923 216.553 10.5578 217.433 10.3043C218.312 10.0509 219.244 9.92418 220.228 9.92418ZM219.848 20.1215C220.549 20.1215 221.167 19.965 221.704 19.6519C222.256 19.3239 222.643 18.8618 222.867 18.2654V16.879H219.982C218.372 16.879 217.567 17.4082 217.567 18.4667C217.567 18.9736 217.768 19.3761 218.171 19.6743C218.573 19.9725 219.132 20.1215 219.848 20.1215ZM240.862 22V14.0836L236.836 20.7477H235.629L231.671 14.0613V22H229.121V10.0584H232.051L236.3 17.5275L240.75 10.0584H243.366L243.389 22H240.862ZM247.138 10.0584H249.933V17.93L256.53 10.0584H259.08V22H256.284V14.1284L249.71 22H247.138V10.0584Z" fill="#1A87D8"/>
<path d="M0.000258421 13.6207C0.000258299 15.0155 0.274977 16.3966 0.808732 17.6852C1.34248 18.9738 2.12482 20.1446 3.11107 21.1309C4.09732 22.1171 5.26816 22.8995 6.55676 23.4332C7.84535 23.967 9.22646 24.2417 10.6212 24.2417C12.016 24.2417 13.3971 23.967 14.6857 23.4332C15.9743 22.8995 17.1451 22.1171 18.1314 21.1309C19.1176 20.1446 19.9 18.9738 20.4337 17.6852C20.9675 16.3966 21.2422 15.0155 21.2422 13.6207L10.6212 13.6207L0.000258421 13.6207Z" fill="#1A87D8"/>
<path d="M32.2419 13.621C32.2419 12.2262 31.9672 10.8451 31.4335 9.5565C30.8997 8.2679 30.1174 7.09706 29.1311 6.11081C28.1449 5.12456 26.974 4.34223 25.6854 3.80847C24.3968 3.27472 23.0157 3 21.621 3C20.2262 3 18.8451 3.27472 17.5565 3.80847C16.2679 4.34223 15.0971 5.12456 14.1108 6.11081C13.1246 7.09706 12.3422 8.2679 11.8085 9.5565C11.2747 10.8451 11 12.2262 11 13.621L21.621 13.621H32.2419Z" fill="#1A87D8"/>
</svg>
