<svg width="72" height="72" viewBox="0 0 72 72" fill="none" xmlns="http://www.w3.org/2000/svg">
<rect width="72" height="72" fill="#ECF5FF"/>
<path d="M60.5885 12.4568C61.2634 13.1317 51.814 33.1104 31.5654 49.5794C28.5956 46.6095 27.6281 45.6421 27.5156 45.5296" stroke="#134D90" stroke-width="2"/>
<path d="M60.5885 12.4568C59.9135 11.7818 39.9348 21.2312 23.4659 41.4799C26.4357 44.4497 27.4031 45.4171 27.5156 45.5296" stroke="#134D90" stroke-width="2"/>
<path d="M46 35.5L44.0894 48.2018C44.0257 48.6247 43.8282 49.0161 43.5258 49.3185L37.0873 55.7571C36.036 56.8084 34.2458 56.3858 33.7757 54.9753L31.9706 49.56" stroke="#134D90" stroke-width="2"/>
<path d="M37 27.5L24.8776 28.9708C24.4337 29.0247 24.0206 29.2258 23.7043 29.542L17.2883 35.9581C16.237 37.0094 16.6596 38.7995 18.07 39.2697L23.4853 41.0748" stroke="#134D90" stroke-width="2"/>
<rect x="41.8701" y="29.761" width="2" height="27" rx="1" transform="rotate(45 41.8701 29.761)" fill="#134D90"/>
<path d="M12.5 47.4999C12.5 44.3125 14.9803 43.3409 17.9645 43.498C17.9879 43.4992 18.011 43.5046 18.0324 43.5138L21.3262 44.9255C21.4237 44.9673 21.4716 45.0779 21.4354 45.1776L19.9499 49.2625C19.6713 50.0287 19.821 50.8852 20.3429 51.5115C21.3712 52.7454 22.9707 53.3506 24.5583 53.1064L28.2696 52.5354C28.3907 52.5168 28.5 52.6105 28.5 52.7331L28.5 54.4999C28.5 58.4435 22.668 57.5271 19.6287 63.2502C19.5646 63.3708 19.4583 63.3671 19.4939 63.2353C19.8213 62.0243 23.1398 57.3777 24.1859 55.9319C24.2946 55.7817 24.155 55.5791 23.9741 55.62C17.7895 57.0168 14.0389 57.3713 10.5 61.4999C7.49997 64.9999 16 54.5 18.5 48.5C21 42.5 15.5 49.9999 11 51.9999C6.5 53.9999 12.5 51.4999 12.5 47.4999Z" fill="#134D90" stroke="#134D90" stroke-width="2"/>
<circle cx="47" cy="26" r="3" fill="#134D90"/>
</svg>
