<svg width="72" height="72" viewBox="0 0 72 72" fill="none" xmlns="http://www.w3.org/2000/svg">
<rect width="72" height="72" fill="#ECF5FF"/>
<path fill-rule="evenodd" clip-rule="evenodd" d="M35 10C34.6304 10 33.8482 10.2039 32.6621 10.6742C31.5269 11.1243 30.157 11.7612 28.682 12.4992C25.7348 13.9739 22.4306 15.8207 19.8635 17.2987C17.4558 18.685 16 21.2687 16 24.0693V39.3872C16 41.1819 16.5957 42.9229 17.6946 44.3425C20.0709 47.4121 23.4929 51.7847 26.8518 55.4403C28.5327 57.2695 30.1762 58.8954 31.6483 60.0831C32.384 60.6767 33.059 61.1463 33.6595 61.4757C34.239 61.7936 34.6999 61.9537 35.0468 61.9989C35.3009 61.987 35.6893 61.8791 36.2299 61.5948C36.7904 61.2999 37.4388 60.8558 38.1607 60.2757C39.604 59.1159 41.2513 57.4855 42.9539 55.6332C46.3551 51.933 49.8834 47.4508 52.3032 44.3382C53.4042 42.922 54 41.182 54 39.3872V24.4405C54 21.7022 52.608 19.1671 50.2844 17.7601C47.7229 16.209 44.3835 14.2448 41.3965 12.6711C39.9016 11.8834 38.5111 11.2022 37.3591 10.7204C36.7828 10.4795 36.2805 10.2944 35.8636 10.171C35.4322 10.0433 35.1523 10 35 10ZM35 8C35.439 8 35.936 8.1066 36.4314 8.25326C36.9414 8.40425 37.5158 8.61811 38.1307 8.87528C39.3611 9.3898 40.8106 10.1017 42.3288 10.9016C45.3681 12.5029 48.7471 14.4911 51.3204 16.0493C54.2611 17.83 56 21.0246 56 24.4405V39.3872C56 41.6256 55.2567 43.7978 53.8822 45.5658C51.4634 48.677 47.8897 53.2188 44.4264 56.9866C42.6968 58.8683 40.9712 60.583 39.4135 61.8347C38.635 62.4604 37.8759 62.9887 37.161 63.3648C36.4605 63.7333 35.72 64 35 64V63L34.9005 63.995C34.1742 63.9224 33.4265 63.6291 32.6975 63.2292C31.9597 62.8244 31.1843 62.2786 30.3924 61.6397C28.8092 60.3623 27.0892 58.6545 25.3791 56.7935C21.9563 53.0684 18.4876 48.634 16.1131 45.5667C14.7432 43.7971 14 41.6257 14 39.3872V24.0693C14 20.5758 15.8187 17.3198 18.8656 15.5655C21.4444 14.0806 24.788 12.2113 27.7871 10.7107C29.2853 9.96102 30.7131 9.29548 31.9249 8.81501C33.0858 8.35474 34.1997 8 35 8Z" fill="#134D90"/>
<rect x="25" y="30" width="20" height="15" rx="2" fill="#134D90"/>
<path d="M29 30C29 26.5 30.6 22 35 22" stroke="#134D90" stroke-width="2"/>
<path d="M41 30C41 26.5 39.4 22 35 22" stroke="#134D90" stroke-width="2"/>
<rect x="34" y="33" width="2" height="5" rx="1" fill="#EDF5FF"/>
</svg>
